<svg width="750" height="500" xmlns="http://www.w3.org/2000/svg" xmlns:svg="http://www.w3.org/2000/svg" stroke="null" style="vector-effect: non-scaling-stroke;">
 <!-- Created with SVG-edit - http://svg-edit.googlecode.com/ -->
 <title stroke="null" style="vector-effect: non-scaling-stroke;"/>
 <g stroke="null" display="inline">
  <title stroke="null">Layer 1</title>
  <path class="A" stroke="#e7dfdd" fill="#e7dfdd" stroke-width="5" stroke-dasharray="null" stroke-linejoin="null" stroke-linecap="null" d="m298.553632,45.179675c0,0 444.779574,463.009507 444.779574,463.009507c0,0 -95.651521,0 -95.651521,0c0,0 -428.040558,-443.916331 -428.040558,-443.916331c0,0 78.912505,-19.093175 78.912505,-19.093175l0,-0.000001z" id="svg_10"/>
  <path class="A" stroke="#e7dfdd" id="svg_5" d="m313.603881,325.567388c0,0 216.19469,1.448154 216.19469,1.448154c0,0 52.960445,68.787362 52.79928,68.449434c-0.161165,-0.337929 -282.05271,0.337929 -282.05271,0.337929c0,0 23.941022,-60.098432 23.779865,-60.436358" stroke-linecap="null" stroke-linejoin="null" stroke-dasharray="null" stroke-width="5" fill="#e7dfdd"/>
  <text stroke="#a239ca" fill="#a239ca" stroke-width="0" x="24.814865" y="102.997139" id="svg_1" font-size="24" font-family="Sans-serif" text-anchor="middle" xml:space="preserve" font-weight="bold" transform="matrix(25.56492433797854,0,0,28.86822191376275,-455.68856923978086,-2475.3501147519637) ">D</text>
 </g>
</svg>